<svg width="22" height="23" viewBox="0 0 22 23" fill="none" xmlns="http://www.w3.org/2000/svg">
<g id="Group">
<path id="Vector" d="M21.9441 6.5716C21.8925 5.40262 21.7035 4.59903 21.4326 3.90262C21.1532 3.16346 20.7233 2.50169 20.1602 1.95154C19.6099 1.39283 18.9436 0.958678 18.2129 0.683709C17.5124 0.412952 16.7128 0.223852 15.5436 0.172365C14.3657 0.116409 13.9918 0.103516 11.0043 0.103516C8.01679 0.103516 7.64286 0.116409 6.46931 0.167982C5.30015 0.219554 4.49637 0.40874 3.80004 0.679326C3.06052 0.958678 2.39863 1.38845 1.84837 1.95154C1.28956 2.50165 0.85554 3.1678 0.580304 3.89841C0.309495 4.59903 0.120402 5.39832 0.0688627 6.56722C0.0129386 7.74492 0 8.11878 0 11.1057C0 14.0926 0.0129386 14.4665 0.0644782 15.6398C0.116061 16.8088 0.305283 17.6124 0.576134 18.3088C0.85554 19.048 1.28956 19.7097 1.84837 20.2599C2.39863 20.8186 3.06491 21.2527 3.79566 21.5277C4.49632 21.7985 5.29577 21.9876 6.46514 22.039C7.63847 22.0908 8.01262 22.1035 11.0001 22.1035C13.9876 22.1035 14.3615 22.0908 15.5351 22.039C16.7042 21.9875 17.508 21.7985 18.2043 21.5277C18.9357 21.245 19.5999 20.8126 20.1543 20.2583C20.7088 19.704 21.1413 19.04 21.4241 18.3088C21.6947 17.6082 21.884 16.8088 21.9355 15.6398C21.9871 14.4665 22 14.0926 22 11.1057C22 8.11878 21.9956 7.74488 21.9441 6.5716ZM19.9626 15.5539C19.9152 16.6283 19.7347 17.2085 19.5843 17.5953C19.2145 18.5537 18.4537 19.3144 17.4951 19.6841C17.1082 19.8345 16.5237 20.0149 15.4533 20.0621C14.2927 20.1138 13.9446 20.1266 11.0087 20.1266C8.07271 20.1266 7.72027 20.1138 6.56384 20.0621C5.4892 20.0149 4.9089 19.8345 4.52203 19.6841C4.04502 19.5078 3.61082 19.2284 3.25834 18.8631C2.89296 18.5064 2.61356 18.0766 2.43723 17.5997C2.28678 17.2129 2.10629 16.6283 2.05913 15.5582C2.00738 14.3979 1.99465 14.0497 1.99465 11.1143C1.99465 8.17887 2.00738 7.8265 2.05913 6.67049C2.10629 5.59606 2.28678 5.01587 2.43723 4.62907C2.61356 4.15194 2.89296 3.71791 3.26273 3.36541C3.61933 3.0001 4.04919 2.72075 4.52641 2.54467C4.91328 2.39425 5.49797 2.21374 6.56822 2.16643C7.72883 2.11485 8.0771 2.10196 11.0128 2.10196C13.9532 2.10196 14.3012 2.11485 15.4577 2.16643C16.5323 2.21379 17.1126 2.39421 17.4995 2.54463C17.9765 2.72075 18.4107 3.0001 18.7632 3.36541C19.1285 3.72216 19.4079 4.15194 19.5843 4.62907C19.7347 5.01587 19.9152 5.60023 19.9625 6.67049C20.0141 7.83088 20.027 8.17887 20.027 11.1143C20.027 14.0497 20.0142 14.3935 19.9626 15.5539Z" fill="white"/>
<path id="Vector_2" d="M11.0043 5.45418C7.88361 5.45418 5.35168 7.98545 5.35168 11.1057C5.35168 14.2259 7.88361 16.7572 11.0043 16.7572C14.125 16.7572 16.6569 14.2259 16.6569 11.1057C16.6569 7.98545 14.125 5.45418 11.0043 5.45418ZM11.0043 14.7717C8.97974 14.7717 7.33753 13.13 7.33753 11.1057C7.33753 9.08138 8.97974 7.43973 11.0042 7.43973C13.0289 7.43973 14.6709 9.08138 14.6709 11.1057C14.6709 13.13 13.0289 14.7717 11.0043 14.7717ZM18.2001 5.23069C18.2001 5.95933 17.6092 6.5501 16.8803 6.5501C16.1516 6.5501 15.5607 5.95933 15.5607 5.23069C15.5607 4.50197 16.1516 3.91138 16.8803 3.91138C17.6092 3.91138 18.2001 4.50193 18.2001 5.23069Z" fill="white"/>
</g>
</svg>
