<svg width="20" height="16" viewBox="0 0 20 16" fill="none" xmlns="http://www.w3.org/2000/svg">
<g id="lets-icons:message-duotone" clip-path="url(#clip0_0_1148)">
<path id="Vector" d="M0.476199 12.8654V6.01179C0.476037 5.98128 0.483695 5.95124 0.498442 5.92453C0.513189 5.89782 0.534534 5.87534 0.560439 5.85922C0.586345 5.84311 0.615949 5.8339 0.646425 5.83247C0.676902 5.83105 0.707235 5.83745 0.734532 5.85108L8.40239 9.6856C8.89841 9.9337 9.4454 10.0629 10 10.0629C10.5546 10.0629 11.1016 9.9337 11.5976 9.6856L19.2643 5.85227C19.2915 5.83841 19.3219 5.83178 19.3524 5.83301C19.383 5.83424 19.4127 5.8433 19.4388 5.85931C19.4648 5.87532 19.4863 5.89775 19.5012 5.92445C19.5161 5.95114 19.5239 5.98122 19.5238 6.01179V12.8654C19.5238 13.4968 19.273 14.1024 18.8265 14.549C18.3799 14.9955 17.7743 15.2463 17.1429 15.2463H2.85715C2.22568 15.2463 1.62008 14.9955 1.17356 14.549C0.727048 14.1024 0.476199 13.4968 0.476199 12.8654Z" fill="white"/>
<path id="Vector_2" d="M0.476196 3.34165V4.42141C0.476242 4.45455 0.485508 4.48702 0.502959 4.51519C0.520409 4.54337 0.545356 4.56613 0.575006 4.58093L8.40239 8.49522C8.89841 8.74331 9.4454 8.87248 10 8.87248C10.5546 8.87248 11.1016 8.74331 11.5976 8.49522L19.425 4.58093C19.4547 4.56613 19.4796 4.54337 19.4971 4.51519C19.5145 4.48702 19.5238 4.45455 19.5238 4.42141V3.34165C19.5238 2.71018 19.273 2.10457 18.8265 1.65806C18.3799 1.21154 17.7743 0.960693 17.1429 0.960693H2.85715C2.22568 0.960693 1.62008 1.21154 1.17356 1.65806C0.727046 2.10457 0.476196 2.71018 0.476196 3.34165Z" fill="#CECECE"/>
</g>
<defs>
<clipPath id="clip0_0_1148">
<rect width="20" height="14.2857" fill="white" transform="translate(0 0.960693)"/>
</clipPath>
</defs>
</svg>
