<svg width="19" height="19" viewBox="0 0 19 19" fill="none" xmlns="http://www.w3.org/2000/svg">
<path id="Vector" d="M2.4048 1.26991L3.84655 0.396661C4.32244 0.108707 4.88684 0.00370342 5.43445 0.101237C5.98205 0.198772 6.47549 0.492182 6.82269 0.926737L8.54525 3.08172C8.84417 3.45556 9.01851 3.91362 9.04379 4.3916C9.06906 4.86959 8.94401 5.34348 8.68618 5.74676L7.41806 7.72984C7.24913 7.99955 7.63132 8.78303 8.81194 9.9883C9.99357 11.1942 10.7694 11.5916 11.0383 11.4296L13.0515 10.1994C13.4596 9.95002 13.9355 9.83456 14.4125 9.86923C14.8894 9.9039 15.3436 10.087 15.7113 10.3928L17.8238 12.1506C18.2505 12.5056 18.5338 13.0034 18.6212 13.5514C18.7085 14.0995 18.5939 14.6607 18.2987 15.1307L17.3881 16.5805C17.0941 17.0485 16.6813 17.4301 16.1916 17.6865C15.702 17.9429 15.1532 18.0648 14.601 18.0398C11.8801 17.9164 8.95466 16.2256 5.80167 13.0079C2.64238 9.78582 0.995871 6.80605 0.900398 4.05017C0.881269 3.49483 1.01059 2.94444 1.27503 2.45574C1.53947 1.96703 1.92946 1.55769 2.4048 1.26991Z" fill="#232323"/>
</svg>
