<svg width="20" height="21" viewBox="0 0 20 21" fill="none" xmlns="http://www.w3.org/2000/svg">
<path id="Vector" d="M17.05 3.01358C16.1332 2.0875 15.0412 1.35324 13.8376 0.853626C12.6341 0.35401 11.3431 0.0990355 10.04 0.103575C4.57999 0.103575 0.129988 4.55357 0.129988 10.0136C0.129988 11.7636 0.589988 13.4636 1.44999 14.9636L0.0499878 20.1036L5.29999 18.7236C6.74999 19.5136 8.37999 19.9336 10.04 19.9336C15.5 19.9336 19.95 15.4836 19.95 10.0236C19.95 7.37357 18.92 4.88357 17.05 3.01358ZM10.04 18.2536C8.55999 18.2536 7.10999 17.8536 5.83999 17.1036L5.53999 16.9236L2.41999 17.7436L3.24999 14.7036L3.04999 14.3936C2.22773 13.0805 1.79113 11.5628 1.78999 10.0136C1.78999 5.47357 5.48999 1.77358 10.03 1.77358C12.23 1.77358 14.3 2.63358 15.85 4.19358C16.6175 4.95754 17.2257 5.86624 17.6394 6.867C18.0531 7.86776 18.264 8.94068 18.26 10.0236C18.28 14.5636 14.58 18.2536 10.04 18.2536ZM14.56 12.0936C14.31 11.9736 13.09 11.3736 12.87 11.2836C12.64 11.2036 12.48 11.1636 12.31 11.4036C12.14 11.6536 11.67 12.2136 11.53 12.3736C11.39 12.5436 11.24 12.5636 10.99 12.4336C10.74 12.3136 9.93999 12.0436 8.99999 11.2036C8.25999 10.5436 7.76999 9.73357 7.61999 9.48357C7.47999 9.23357 7.59999 9.10357 7.72999 8.97357C7.83999 8.86357 7.97999 8.68357 8.09999 8.54357C8.21999 8.40357 8.26999 8.29357 8.34999 8.13357C8.42999 7.96357 8.38999 7.82358 8.32999 7.70358C8.26999 7.58358 7.76999 6.36358 7.56999 5.86358C7.36999 5.38358 7.15999 5.44358 7.00999 5.43358H6.52999C6.35999 5.43358 6.09999 5.49358 5.86999 5.74358C5.64999 5.99358 5.00999 6.59358 5.00999 7.81358C5.00999 9.03358 5.89999 10.2136 6.01999 10.3736C6.13999 10.5436 7.76999 13.0436 10.25 14.1136C10.84 14.3736 11.3 14.5236 11.66 14.6336C12.25 14.8236 12.79 14.7936 13.22 14.7336C13.7 14.6636 14.69 14.1336 14.89 13.5536C15.1 12.9736 15.1 12.4836 15.03 12.3736C14.96 12.2636 14.81 12.2136 14.56 12.0936Z" fill="white"/>
</svg>
