<svg width="20" height="21" viewBox="0 0 20 21" fill="none" xmlns="http://www.w3.org/2000/svg">
<g id="Group">
<path id="Vector" d="M20 20.1035V12.7785C20 9.17852 19.225 6.42852 15.025 6.42852C13 6.42852 11.65 7.52852 11.1 8.57852H11.05V6.75352H7.075V20.1035H11.225V13.4785C11.225 11.7285 11.55 10.0535 13.7 10.0535C15.825 10.0535 15.85 12.0285 15.85 13.5785V20.0785H20V20.1035ZM0.325 6.75352H4.475V20.1035H0.325V6.75352ZM2.4 0.103516C1.075 0.103516 0 1.17852 0 2.50352C0 3.82852 1.075 4.92852 2.4 4.92852C3.725 4.92852 4.8 3.82852 4.8 2.50352C4.8 1.17852 3.725 0.103516 2.4 0.103516Z" fill="white"/>
</g>
</svg>
